<svg width="24" height="24" viewBox="0 0 36 27" fill="none" xmlns="http://www.w3.org/2000/svg">
  <path
    d="M2 13.4407H7.72964C10.894 13.4407 13.4593 10.8796 13.4593 7.72034C13.4593 4.56108 10.894 2 7.72964 2H2V13.4407ZM2 13.4407H11.0037C14.1681 13.4407 16.7334 16.0018 16.7334 19.161C16.7334 22.3203 14.1681 24.8814 11.0037 24.8814H2V13.4407ZM21.6445 18.3438H34.7408C34.7408 14.7332 31.8091 11.8063 28.1926 11.8063C24.5762 11.8063 21.6445 14.7332 21.6445 18.3438ZM21.6445 18.3438C21.6445 21.9544 24.5762 24.8814 28.1926 24.8814C29.5823 24.8814 30.8709 24.4492 31.9309 23.712M20.826 5.26877H35.5593"
    stroke="#0088FF" stroke-width="2.5" />
</svg>