<svg width="24" height="24" viewBox="0 0 30 35" fill="none" xmlns="http://www.w3.org/2000/svg">
 <path
  d="M11.1114 28.3386C11.7689 28.128 12.1311 27.4243 11.9205 26.7668C11.7099 26.1094 11.0062 25.7471 10.3488 25.9577L11.1114 28.3386ZM2.32246 21.042L1.11477 20.7196L0.469849 23.135L1.67754 23.4574L2.32246 21.042ZM19.8013 33.2712V34.5212H22.3013V33.2712H19.8013ZM20.1912 21.0251L20.0554 19.7825C19.5785 19.8347 19.1735 20.1552 19.0131 20.6073C18.8528 21.0595 18.9654 21.5636 19.3029 21.9045L20.1912 21.0251ZM27.9322 11.8887L29.1822 11.8887L29.1822 11.8847L27.9322 11.8887ZM25.9258 6.97496L24.758 6.52902C24.5838 6.98532 24.6913 7.50132 25.0332 7.85009L25.9258 6.97496ZM25.8054 2.03521L26.9499 1.53262C26.801 1.19368 26.5096 0.938142 26.1542 0.834852L25.8054 2.03521ZM20.5733 3.97468L20.253 5.18294C20.5966 5.274 20.9626 5.21454 21.2596 5.01943L20.5733 3.97468ZM11.2081 3.97468L10.522 5.01956C10.819 5.21457 11.1849 5.27398 11.5284 5.18294L11.2081 3.97468ZM5.97604 2.03521L5.62695 0.834941C5.2716 0.938291 4.98032 1.19378 4.83153 1.53262L5.97604 2.03521ZM5.85562 6.97496L6.7481 7.85017C7.09012 7.5014 7.19764 6.98536 7.02337 6.52902L5.85562 6.97496ZM3.84921 11.9285L5.09921 11.9285L5.0992 11.9253L3.84921 11.9285ZM11.5902 21.0251L12.48 21.903C12.8148 21.5638 12.9274 21.0636 12.7705 20.6136C12.6136 20.1635 12.2143 19.8419 11.7412 19.7843L11.5902 21.0251ZM10.7301 24.6989H11.9801C11.9801 24.6689 11.979 24.6389 11.9768 24.6089L10.7301 24.6989ZM9.48009 33.2712V34.5212H11.9801V33.2712H9.48009ZM10.3488 25.9577C8.90493 26.4202 7.9988 26.3657 7.40493 26.1664C6.81297 25.9677 6.35402 25.5665 5.91122 24.9795C5.6873 24.6826 5.48074 24.3562 5.26335 23.9983C5.05688 23.6584 4.82242 23.2585 4.58528 22.9029C4.12739 22.2162 3.4424 21.3411 2.32246 21.042L1.67754 23.4574C1.84755 23.5028 2.09238 23.6706 2.50525 24.2898C2.70348 24.5871 2.88962 24.906 3.12663 25.2961C3.3527 25.6683 3.61246 26.0834 3.91536 26.485C4.52619 27.2947 5.36283 28.1181 6.60946 28.5365C7.85417 28.9543 9.32963 28.9093 11.1114 28.3386L10.3488 25.9577ZM22.3013 24.5459C22.3013 23.1686 22.4118 21.4916 21.0796 20.1457L19.3029 21.9045C19.7739 22.3803 19.8013 22.8616 19.8013 24.5459H22.3013ZM20.3271 22.2677C22.498 22.0304 24.7788 21.4984 26.4956 19.8763C28.2466 18.2219 29.1822 15.6606 29.1822 11.8887H26.6822C26.6822 15.2715 25.8478 17.0489 24.7786 18.0592C23.6751 19.1018 22.0855 19.5606 20.0554 19.7825L20.3271 22.2677ZM29.1822 11.8847C29.1753 9.71907 28.3281 7.63964 26.8183 6.09983L25.0332 7.85009C26.0824 8.92018 26.6774 10.3727 26.6822 11.8927L29.1822 11.8847ZM27.0935 7.4209C27.4536 6.47799 27.6261 5.4725 27.6015 4.46236L25.1022 4.52328C25.1189 5.20891 25.0018 5.8907 24.758 6.52902L27.0935 7.4209ZM27.6015 4.46236C27.5769 3.45222 27.3556 2.4565 26.9499 1.53262L24.6609 2.53779C24.9353 3.16277 25.0855 3.83766 25.1022 4.52328L27.6015 4.46236ZM25.8054 2.03521C26.1542 0.834852 26.153 0.834507 26.1518 0.834161C26.1514 0.834044 26.1502 0.833698 26.1493 0.833465C26.1477 0.832998 26.1461 0.832528 26.1444 0.832054C26.141 0.831105 26.1376 0.830142 26.134 0.829166C26.1268 0.827214 26.1193 0.82521 26.1113 0.823166C26.0954 0.819079 26.0778 0.81484 26.0586 0.810554C26.0201 0.801979 25.9751 0.793238 25.9234 0.785163C25.82 0.768993 25.6908 0.755615 25.5353 0.751392C25.2236 0.742927 24.8114 0.77136 24.2933 0.883931C23.2591 1.10864 21.8099 1.66685 19.8871 2.92992L21.2596 5.01943C22.9884 3.8838 24.1551 3.47228 24.8241 3.32693C25.1576 3.25447 25.3687 3.24779 25.4674 3.25047C25.5171 3.25182 25.54 3.25558 25.5372 3.25515C25.5359 3.25495 25.5284 3.25373 25.5149 3.25071C25.5081 3.24921 25.4999 3.24725 25.4901 3.24476C25.4853 3.24351 25.48 3.24213 25.4744 3.2406C25.4716 3.23983 25.4688 3.23903 25.4658 3.23819C25.4643 3.23777 25.4628 3.23734 25.4613 3.23691C25.4605 3.23669 25.4593 3.23635 25.4589 3.23624C25.4578 3.2359 25.4566 3.23556 25.8054 2.03521ZM20.8936 2.76641C17.6133 1.89683 14.1681 1.89683 10.8878 2.76641L11.5284 5.18294C14.3889 4.42465 17.3925 4.42465 20.253 5.18294L20.8936 2.76641ZM11.8942 2.92979C9.97073 1.66683 8.52152 1.10865 7.48761 0.883944C6.96964 0.771371 6.55753 0.742924 6.24588 0.751392C6.09036 0.755618 5.9612 0.769002 5.85778 0.785185C5.80612 0.793268 5.76109 0.802017 5.72259 0.810603C5.70334 0.814895 5.68575 0.81914 5.66981 0.823234C5.66184 0.82528 5.65428 0.827288 5.64714 0.829244C5.64357 0.830222 5.6401 0.831187 5.63673 0.832137C5.63505 0.832612 5.63339 0.833083 5.63176 0.833551C5.63095 0.833785 5.62974 0.834131 5.62934 0.834249C5.62814 0.834595 5.62695 0.834941 5.97604 2.03521C6.32513 3.23547 6.32395 3.23581 6.32278 3.23615C6.32239 3.23626 6.32123 3.2366 6.32046 3.23682C6.31892 3.23726 6.31741 3.23769 6.31592 3.23811C6.31294 3.23895 6.31005 3.23975 6.30725 3.24052C6.30165 3.24205 6.29642 3.24344 6.29155 3.24469C6.2818 3.24719 6.27352 3.24915 6.26674 3.25066C6.25315 3.2537 6.2456 3.25492 6.24426 3.25513C6.24145 3.25557 6.26419 3.25182 6.31378 3.25047C6.41233 3.24779 6.62328 3.25446 6.95668 3.32691C7.62551 3.47227 8.79232 3.88383 10.522 5.01956L11.8942 2.92979ZM4.83153 1.53262C4.42583 2.4565 4.20455 3.45222 4.17993 4.46236L6.67918 4.52328C6.6959 3.83766 6.8461 3.16277 7.12055 2.53779L4.83153 1.53262ZM4.17993 4.46236C4.1553 5.4725 4.32779 6.47799 4.68788 7.4209L7.02337 6.52902C6.77961 5.8907 6.66247 5.20891 6.67918 4.52328L4.17993 4.46236ZM4.96315 6.09975C4.20976 6.868 3.61389 7.77871 3.20865 8.77919L5.52578 9.71774C5.80913 9.01821 6.22484 8.38375 6.7481 7.85017L4.96315 6.09975ZM3.20865 8.77919C2.80342 9.77963 2.59649 10.8508 2.59921 11.9316L5.0992 11.9253C5.0973 11.1676 5.24243 10.4173 5.52578 9.71774L3.20865 8.77919ZM2.59921 11.9285C2.59921 15.6778 3.5367 18.2168 5.28926 19.8604C7.00266 21.4672 9.27887 22.0031 11.4392 22.266L11.7412 19.7843C9.70053 19.5359 8.10625 19.0748 6.9994 18.0368C5.93172 17.0355 5.09921 15.2819 5.09921 11.9285H2.59921ZM10.7004 20.1472C10.0152 20.8417 9.70258 21.7192 9.56187 22.513C9.42079 23.3089 9.43494 24.1189 9.48333 24.789L11.9768 24.6089C11.9349 24.0284 11.9343 23.4523 12.0235 22.9493C12.113 22.4443 12.2756 22.1102 12.48 21.903L10.7004 20.1472ZM9.48009 24.6989V33.2712H11.9801V24.6989H9.48009ZM22.3013 33.2712V24.5459H19.8013V33.2712H22.3013Z"
  fill="#0088FF" />
</svg>